[ConversionWorker] Logging FFmpeg output to: ffmpeg_logs\ffmpeg_conversion_高冷18_wav_20250525_174136.log\n[ConversionWorker] Getting duration with command: ffprobe -v error -show_entries format=duration -of default=noprint_wrappers=1:nokey=1 Z:\Story\高冷\高冷18.wav\n[ConversionWorker] Duration for 高冷18.wav: 13978130 ms\n[ConversionWorker] Starting FFmpeg for 高冷18.wav: ffmpeg -i Z:\Story\高冷\高冷18.wav -b:a 128k -vn -y -loglevel error -stats -progress pipe:1 Z:\Story\高冷\高冷18.mp3\n[ConversionWorker] FFmpeg process started. PID: 30052\n[STDOUT RAW] bitrate= 123.7kbits/s\n[STDOUT RAW] total_size=76460\n[STDOUT RAW] out_time_us=4945958\n[STDOUT RAW] out_time_ms=4945958\n[STDOUT RAW] out_time=00:00:04.945958\n[STDOUT RAW] dup_frames=0\n[STDOUT RAW] drop_frames=0\n[STDOUT RAW] speed=9.85x\n[STDOUT RAW] progress=continue\n[STDERR RAW] size=      75KiB time=00:00:04.94 bitrate= 123.7kbits/s speed=9.85x\n[STDOUT RAW] bitrate= 125.9kbits/s\n[STDOUT RAW] total_size=160556\n[STDOUT RAW] out_time_us=10201958\n[STDOUT RAW] out_time_ms=10201958\n[STDOUT RAW] out_time=00:00:10.201958\n[STDOUT RAW] dup_frames=0\n[STDOUT RAW] drop_frames=0\n[STDOUT RAW] speed=9.93x\n[STDOUT RAW] progress=continue\n[STDERR RAW] size=     157KiB time=00:00:10.20 bitrate= 125.9kbits/s speed=9.93x\n[STDOUT RAW] bitrate= 126.6kbits/s\n[STDOUT RAW] total_size=238124\n[STDOUT RAW] out_time_us=15049958\n[STDOUT RAW] out_time_ms=15049958\n[STDOUT RAW] out_time=00:00:15.049958\n[STDOUT RAW] dup_frames=0\n[STDOUT RAW] drop_frames=0\n[STDOUT RAW] speed=9.73x\n[STDOUT RAW] progress=continue\n[STDERR RAW] size=     233KiB time=00:00:15.04 bitrate= 126.6kbits/s speed=9.73x\n[STDOUT RAW] bitrate= 125.3kbits/s\n[STDOUT RAW] total_size=1572864\n[STDOUT RAW] out_time_us=100417958\n[STDOUT RAW] out_time_ms=100417958\n[STDOUT RAW] out_time=00:01:40.417958\n[STDOUT RAW] dup_frames=0\n[STDOUT RAW] drop_frames=0\n[STDOUT RAW] speed=48.9x\n[STDOUT RAW] progress=continue\n[STDERR RAW] size=    1536KiB time=00:01:40.41 bitrate= 125.3kbits/s speed=48.9x\n[STDOUT RAW] bitrate= 126.9kbits/s\n[STDOUT RAW] total_size=3407872\n[STDOUT RAW] out_time_us=214753958\n[STDOUT RAW] out_time_ms=214753958\n[STDOUT RAW] out_time=00:03:34.753958\n[STDOUT RAW] dup_frames=0\n[STDOUT RAW] drop_frames=0\n[STDOUT RAW] speed=83.7x\n[STDOUT RAW] progress=continue\n[STDERR RAW] size=    3328KiB time=00:03:34.75 bitrate= 126.9kbits/s speed=83.7x\n[STDOUT RAW] bitrate= 127.8kbits/s\n[STDOUT RAW] total_size=5242880\n[STDOUT RAW] out_time_us=328153958\n[STDOUT RAW] out_time_ms=328153958\n[STDOUT RAW] out_time=00:05:28.153958\n[STDOUT RAW] dup_frames=0\n[STDOUT RAW] drop_frames=0\n[STDOUT RAW] speed= 106x\n[STDOUT RAW] progress=continue\n[STDERR RAW] size=    5120KiB time=00:05:28.15 bitrate= 127.8kbits/s speed= 106x\n[STDOUT RAW] bitrate= 123.7kbits/s\n[STDOUT RAW] total_size=6815744\n[STDOUT RAW] out_time_us=440641958\n[STDOUT RAW] out_time_ms=440641958\n[STDOUT RAW] out_time=00:07:20.641958\n[STDOUT RAW] dup_frames=0\n[STDOUT RAW] drop_frames=0\n[STDOUT RAW] speed= 122x\n[STDOUT RAW] progress=continue\n[STDERR RAW] size=    6656KiB time=00:07:20.64 bitrate= 123.7kbits/s speed= 122x\n[STDOUT RAW] bitrate= 125.5kbits/s\n[STDOUT RAW] total_size=8650752\n[STDOUT RAW] out_time_us=551497958\n[STDOUT RAW] out_time_ms=551497958\n[STDOUT RAW] out_time=00:09:11.497958\n[STDOUT RAW] dup_frames=0\n[STDOUT RAW] drop_frames=0\n[STDOUT RAW] speed= 134x\n[STDOUT RAW] progress=continue\n[STDERR RAW] size=    8448KiB time=00:09:11.49 bitrate= 125.5kbits/s speed= 134x\n[STDOUT RAW] bitrate= 125.3kbits/s\n[STDOUT RAW] total_size=10485760\n[STDOUT RAW] out_time_us=669457958\n[STDOUT RAW] out_time_ms=669457958\n[STDOUT RAW] out_time=00:11:09.457958\n[STDOUT RAW] dup_frames=0\n[STDOUT RAW] drop_frames=0\n[STDOUT RAW] speed= 144x\n[STDOUT RAW] progress=continue\n[STDERR RAW] size=   10240KiB time=00:11:09.45 bitrate= 125.3kbits/s speed= 144x\n[STDOUT RAW] bitrate= 126.0kbits/s\n[STDOUT RAW] total_size=12320768\n[STDOUT RAW] out_time_us=782017958\n[STDOUT RAW] out_time_ms=782017958\n[STDOUT RAW] out_time=00:13:02.017958\n[STDOUT RAW] dup_frames=0\n[STDOUT RAW] drop_frames=0\n[STDOUT RAW] speed= 152x\n[STDOUT RAW] progress=continue\n[STDERR RAW] size=   12032KiB time=00:13:02.01 bitrate= 126.0kbits/s speed= 152x\n[STDOUT RAW] bitrate= 126.2kbits/s\n[STDOUT RAW] total_size=14155776\n[STDOUT RAW] out_time_us=897553958\n[STDOUT RAW] out_time_ms=897553958\n[STDOUT RAW] out_time=00:14:57.553958\n[STDOUT RAW] dup_frames=0\n[STDOUT RAW] drop_frames=0\n[STDOUT RAW] speed= 158x\n[STDOUT RAW] progress=continue\n[STDERR RAW] size=   13824KiB time=00:14:57.55 bitrate= 126.2kbits/s speed= 158x\n[STDOUT RAW] bitrate= 126.3kbits/s\n[STDOUT RAW] total_size=15990784\n[STDOUT RAW] out_time_us=1012777958\n[STDOUT RAW] out_time_ms=1012777958\n[STDOUT RAW] out_time=00:16:52.777958\n[STDOUT RAW] dup_frames=0\n[STDOUT RAW] drop_frames=0\n[STDOUT RAW] speed= 164x\n[STDOUT RAW] progress=continue\n[STDERR RAW] size=   15616KiB time=00:16:52.77 bitrate= 126.3kbits/s speed= 164x\n[STDOUT RAW] bitrate= 126.9kbits/s\n[STDOUT RAW] total_size=17825792\n[STDOUT RAW] out_time_us=1123681958\n[STDOUT RAW] out_time_ms=1123681958\n[STDOUT RAW] out_time=00:18:43.681958\n[STDOUT RAW] dup_frames=0\n[STDOUT RAW] drop_frames=0\n[STDOUT RAW] speed= 168x\n[STDOUT RAW] progress=continue\n[STDERR RAW] size=   17408KiB time=00:18:43.68 bitrate= 126.9kbits/s speed= 168x\n[STDOUT RAW] bitrate= 126.3kbits/s\n[STDOUT RAW] total_size=19398656\n[STDOUT RAW] out_time_us=1228921958\n[STDOUT RAW] out_time_ms=1228921958\n[STDOUT RAW] out_time=00:20:28.921958\n[STDOUT RAW] dup_frames=0\n[STDOUT RAW] drop_frames=0\n[STDOUT RAW] speed= 171x\n[STDOUT RAW] progress=continue\n[STDERR RAW] size=   18944KiB time=00:20:28.92 bitrate= 126.3kbits/s speed= 171x\n[STDOUT RAW] bitrate= 127.0kbits/s\n[STDOUT RAW] total_size=21233664\n[STDOUT RAW] out_time_us=1337569958\n[STDOUT RAW] out_time_ms=1337569958\n[STDOUT RAW] out_time=00:22:17.569958\n[STDOUT RAW] dup_frames=0\n[STDOUT RAW] drop_frames=0\n[STDOUT RAW] speed= 173x\n[STDOUT RAW] progress=continue\n[STDERR RAW] size=   20736KiB time=00:22:17.56 bitrate= 127.0kbits/s speed= 173x\n[STDOUT RAW] bitrate= 126.8kbits/s\n[STDOUT RAW] total_size=23068672\n[STDOUT RAW] out_time_us=1454929958\n[STDOUT RAW] out_time_ms=1454929958\n[STDOUT RAW] out_time=00:24:14.929958\n[STDOUT RAW] dup_frames=0\n[STDOUT RAW] drop_frames=0\n[STDOUT RAW] speed= 176x\n[STDOUT RAW] progress=continue\n[STDERR RAW] size=   22528KiB time=00:24:14.92 bitrate= 126.8kbits/s speed= 176x\n[STDOUT RAW] bitrate= 127.3kbits/s\n[STDOUT RAW] total_size=24903680\n[STDOUT RAW] out_time_us=1565449958\n[STDOUT RAW] out_time_ms=1565449958\n[STDOUT RAW] out_time=00:26:05.449958\n[STDOUT RAW] dup_frames=0\n[STDOUT RAW] drop_frames=0\n[STDOUT RAW] speed= 179x\n[STDOUT RAW] progress=continue\n[STDERR RAW] size=   24320KiB time=00:26:05.44 bitrate= 127.3kbits/s speed= 179x\n[STDOUT RAW] bitrate= 127.7kbits/s\n[STDOUT RAW] total_size=26738688\n[STDOUT RAW] out_time_us=1675369958\n[STDOUT RAW] out_time_ms=1675369958\n[STDOUT RAW] out_time=00:27:55.369958\n[STDOUT RAW] dup_frames=0\n[STDOUT RAW] drop_frames=0\n[STDOUT RAW] speed= 181x\n[STDOUT RAW] progress=continue\n[STDERR RAW] size=   26112KiB time=00:27:55.36 bitrate= 127.7kbits/s speed= 181x\n[STDOUT RAW] bitrate= 126.8kbits/s\n[STDOUT RAW] total_size=28311552\n[STDOUT RAW] out_time_us=1785985958\n[STDOUT RAW] out_time_ms=1785985958\n[STDOUT RAW] out_time=00:29:45.985958\n[STDOUT RAW] dup_frames=0\n[STDOUT RAW] drop_frames=0\n[STDOUT RAW] speed= 182x\n[STDOUT RAW] progress=continue\n[STDERR RAW] size=   27648KiB time=00:29:45.98 bitrate= 126.8kbits/s speed= 182x\n[STDOUT RAW] bitrate= 127.3kbits/s\n[STDOUT RAW] total_size=30146560\n[STDOUT RAW] out_time_us=1894729958\n[STDOUT RAW] out_time_ms=1894729958\n[STDOUT RAW] out_time=00:31:34.729958\n[STDOUT RAW] dup_frames=0\n[STDOUT RAW] drop_frames=0\n[STDOUT RAW] speed= 184x\n[STDOUT RAW] progress=continue\n[STDERR RAW] size=   29440KiB time=00:31:34.72 bitrate= 127.3kbits/s speed= 184x\n[STDOUT RAW] bitrate= 127.4kbits/s\n[STDOUT RAW] total_size=31981568\n[STDOUT RAW] out_time_us=2008585958\n[STDOUT RAW] out_time_ms=2008585958\n[STDOUT RAW] out_time=00:33:28.585958\n[STDOUT RAW] dup_frames=0\n[STDOUT RAW] drop_frames=0\n[STDOUT RAW] speed= 186x\n[STDOUT RAW] progress=continue\n[STDERR RAW] size=   31232KiB time=00:33:28.58 bitrate= 127.4kbits/s speed= 186x\n[STDOUT RAW] bitrate= 127.3kbits/s\n[STDOUT RAW] total_size=33816576\n[STDOUT RAW] out_time_us=2124505958\n[STDOUT RAW] out_time_ms=2124505958\n[STDOUT RAW] out_time=00:35:24.505958\n[STDOUT RAW] dup_frames=0\n[STDOUT RAW] drop_frames=0\n[STDOUT RAW] speed= 187x\n[STDOUT RAW] progress=continue\n[STDERR RAW] size=   33024KiB time=00:35:24.50 bitrate= 127.3kbits/s speed= 187x\n[STDOUT RAW] bitrate= 127.5kbits/s\n[STDOUT RAW] total_size=35651584\n[STDOUT RAW] out_time_us=2237809958\n[STDOUT RAW] out_time_ms=2237809958\n[STDOUT RAW] out_time=00:37:17.809958\n[STDOUT RAW] dup_frames=0\n[STDOUT RAW] drop_frames=0\n[STDOUT RAW] speed= 189x\n[STDOUT RAW] progress=continue\n[STDERR RAW] size=   34816KiB time=00:37:17.80 bitrate= 127.5kbits/s speed= 189x\n[STDOUT RAW] bitrate= 127.3kbits/s\n[STDOUT RAW] total_size=37486592\n[STDOUT RAW] out_time_us=2355625958\n[STDOUT RAW] out_time_ms=2355625958\n[STDOUT RAW] out_time=00:39:15.625958\n[STDOUT RAW] dup_frames=0\n[STDOUT RAW] drop_frames=0\n[STDOUT RAW] speed= 190x\n[STDOUT RAW] progress=continue\n[STDERR RAW] size=   36608KiB time=00:39:15.62 bitrate= 127.3kbits/s speed= 190x\n[STDOUT RAW] bitrate= 127.8kbits/s\n[STDOUT RAW] total_size=39321600\n[STDOUT RAW] out_time_us=2460961958\n[STDOUT RAW] out_time_ms=2460961958\n[STDOUT RAW] out_time=00:41:00.961958\n[STDOUT RAW] dup_frames=0\n[STDOUT RAW] drop_frames=0\n[STDOUT RAW] speed= 191x\n[STDOUT RAW] progress=continue\n[STDERR RAW] size=   38400KiB time=00:41:00.96 bitrate= 127.8kbits/s speed= 191x\n[STDOUT RAW] bitrate= 127.4kbits/s\n[STDOUT RAW] total_size=40894464\n[STDOUT RAW] out_time_us=2568913958\n[STDOUT RAW] out_time_ms=2568913958\n[STDOUT RAW] out_time=00:42:48.913958\n[STDOUT RAW] dup_frames=0\n[STDOUT RAW] drop_frames=0\n[STDOUT RAW] speed= 191x\n[STDOUT RAW] progress=continue\n[STDERR RAW] size=   39936KiB time=00:42:48.91 bitrate= 127.4kbits/s speed= 191x\n[STDOUT RAW] bitrate= 127.9kbits/s\n[STDOUT RAW] total_size=42729472\n[STDOUT RAW] out_time_us=2672593958\n[STDOUT RAW] out_time_ms=2672593958\n[STDOUT RAW] out_time=00:44:32.593958\n[STDOUT RAW] dup_frames=0\n[STDOUT RAW] drop_frames=0\n[STDOUT RAW] speed= 192x\n[STDOUT RAW] progress=continue\n[STDERR RAW] size=   41728KiB time=00:44:32.59 bitrate= 127.9kbits/s speed= 192x\n[STDOUT RAW] bitrate= 127.4kbits/s\n[STDOUT RAW] total_size=44302336\n[STDOUT RAW] out_time_us=2782849958\n[STDOUT RAW] out_time_ms=2782849958\n[STDOUT RAW] out_time=00:46:22.849958\n[STDOUT RAW] dup_frames=0\n[STDOUT RAW] drop_frames=0\n[STDOUT RAW] speed= 193x\n[STDOUT RAW] progress=continue\n[STDERR RAW] size=   43264KiB time=00:46:22.84 bitrate= 127.4kbits/s speed= 193x\n[STDOUT RAW] bitrate= 127.3kbits/s\n[STDOUT RAW] total_size=45350912\n[STDOUT RAW] out_time_us=2850937958\n[STDOUT RAW] out_time_ms=2850937958\n[STDOUT RAW] out_time=00:47:30.937958\n[STDOUT RAW] dup_frames=0\n[STDOUT RAW] drop_frames=0\n[STDOUT RAW] speed= 191x\n[STDOUT RAW] progress=continue\n[STDERR RAW] size=   44288KiB time=00:47:30.93 bitrate= 127.3kbits/s speed= 191x\n[STDOUT RAW] bitrate= 127.3kbits/s\n[STDOUT RAW] total_size=46661632\n[STDOUT RAW] out_time_us=2932873958\n[STDOUT RAW] out_time_ms=2932873958\n[STDOUT RAW] out_time=00:48:52.873958\n[STDOUT RAW] dup_frames=0\n[STDOUT RAW] drop_frames=0\n[STDOUT RAW] speed= 190x\n[STDOUT RAW] progress=continue\n[STDERR RAW] size=   45568KiB time=00:48:52.87 bitrate= 127.3kbits/s speed= 190x\n[STDOUT RAW] bitrate= 127.3kbits/s\n[STDOUT RAW] total_size=48496640\n[STDOUT RAW] out_time_us=3047377958\n[STDOUT RAW] out_time_ms=3047377958\n[STDOUT RAW] out_time=00:50:47.377958\n[STDOUT RAW] dup_frames=0\n[STDOUT RAW] drop_frames=0\n[STDOUT RAW] speed= 191x\n[STDOUT RAW] progress=continue\n[STDERR RAW] size=   47360KiB time=00:50:47.37 bitrate= 127.3kbits/s speed= 191x\n[STDOUT RAW] bitrate= 127.7kbits/s\n[STDOUT RAW] total_size=50331648\n[STDOUT RAW] out_time_us=3153193958\n[STDOUT RAW] out_time_ms=3153193958\n[STDOUT RAW] out_time=00:52:33.193958\n[STDOUT RAW] dup_frames=0\n[STDOUT RAW] drop_frames=0\n[STDOUT RAW] speed= 191x\n[STDOUT RAW] progress=continue\n[STDERR RAW] size=   49152KiB time=00:52:33.19 bitrate= 127.7kbits/s speed= 191x\n[STDOUT RAW] bitrate= 128.0kbits/s\n[STDOUT RAW] total_size=52166656\n[STDOUT RAW] out_time_us=3260977958\n[STDOUT RAW] out_time_ms=3260977958\n[STDOUT RAW] out_time=00:54:20.977958\n[STDOUT RAW] dup_frames=0\n[STDOUT RAW] drop_frames=0\n[STDOUT RAW] speed= 192x\n[STDOUT RAW] progress=continue\n[STDERR RAW] size=   50944KiB time=00:54:20.97 bitrate= 128.0kbits/s speed= 192x\n[STDOUT RAW] bitrate= 127.5kbits/s\n[STDOUT RAW] total_size=53739520\n[STDOUT RAW] out_time_us=3370681958\n[STDOUT RAW] out_time_ms=3370681958\n[STDOUT RAW] out_time=00:56:10.681958\n[STDOUT RAW] dup_frames=0\n[STDOUT RAW] drop_frames=0\n[STDOUT RAW] speed= 192x\n[STDOUT RAW] progress=continue\n[STDERR RAW] size=   52480KiB time=00:56:10.68 bitrate= 127.5kbits/s speed= 192x\n[STDOUT RAW] bitrate= 127.8kbits/s\n[STDOUT RAW] total_size=55574528\n[STDOUT RAW] out_time_us=3480097958\n[STDOUT RAW] out_time_ms=3480097958\n[STDOUT RAW] out_time=00:58:00.097958\n[STDOUT RAW] dup_frames=0\n[STDOUT RAW] drop_frames=0\n[STDOUT RAW] speed= 193x\n[STDOUT RAW] progress=continue\n[STDERR RAW] size=   54272KiB time=00:58:00.09 bitrate= 127.8kbits/s speed= 193x\n[STDOUT RAW] bitrate= 127.4kbits/s\n[STDOUT RAW] total_size=57147392\n[STDOUT RAW] out_time_us=3587473958\n[STDOUT RAW] out_time_ms=3587473958\n[STDOUT RAW] out_time=00:59:47.473958\n[STDOUT RAW] dup_frames=0\n[STDOUT RAW] drop_frames=0\n[STDOUT RAW] speed= 193x\n[STDOUT RAW] progress=continue\n[STDERR RAW] size=   55808KiB time=00:59:47.47 bitrate= 127.4kbits/s speed= 193x\n[STDOUT RAW] bitrate= 127.4kbits/s\n[STDOUT RAW] total_size=58720256\n[STDOUT RAW] out_time_us=3686521958\n[STDOUT RAW] out_time_ms=3686521958\n[STDOUT RAW] out_time=01:01:26.521958\n[STDOUT RAW] dup_frames=0\n[STDOUT RAW] drop_frames=0\n[STDOUT RAW] speed= 193x\n[STDOUT RAW] progress=continue\n[STDERR RAW] size=   57344KiB time=01:01:26.52 bitrate= 127.4kbits/s speed= 193x\n[STDOUT RAW] bitrate= 127.5kbits/s\n[STDOUT RAW] total_size=60293120\n[STDOUT RAW] out_time_us=3783001958\n[STDOUT RAW] out_time_ms=3783001958\n[STDOUT RAW] out_time=01:03:03.001958\n[STDOUT RAW] dup_frames=0\n[STDOUT RAW] drop_frames=0\n[STDOUT RAW] speed= 193x\n[STDOUT RAW] progress=continue\n[STDERR RAW] size=   58880KiB time=01:03:03.00 bitrate= 127.5kbits/s speed= 193x\n[STDOUT RAW] bitrate= 127.6kbits/s\n[STDOUT RAW] total_size=61865984\n[STDOUT RAW] out_time_us=3880009958\n[STDOUT RAW] out_time_ms=3880009958\n[STDOUT RAW] out_time=01:04:40.009958\n[STDOUT RAW] dup_frames=0\n[STDOUT RAW] drop_frames=0\n[STDOUT RAW] speed= 193x\n[STDOUT RAW] progress=continue\n[STDERR RAW] size=   60416KiB time=01:04:40.00 bitrate= 127.6kbits/s speed= 193x\n[STDOUT RAW] bitrate= 127.9kbits/s\n[STDOUT RAW] total_size=63700992\n[STDOUT RAW] out_time_us=3984313958\n[STDOUT RAW] out_time_ms=3984313958\n[STDOUT RAW] out_time=01:06:24.313958\n[STDOUT RAW] dup_frames=0\n[STDOUT RAW] drop_frames=0\n[STDOUT RAW] speed= 193x\n[STDOUT RAW] progress=continue\n[STDERR RAW] size=   62208KiB time=01:06:24.31 bitrate= 127.9kbits/s speed= 193x\n[STDOUT RAW] bitrate= 127.8kbits/s\n[STDOUT RAW] total_size=65273856\n[STDOUT RAW] out_time_us=4087417958\n[STDOUT RAW] out_time_ms=4087417958\n[STDOUT RAW] out_time=01:08:07.417958\n[STDOUT RAW] dup_frames=0\n[STDOUT RAW] drop_frames=0\n[STDOUT RAW] speed= 193x\n[STDOUT RAW] progress=continue\n[STDERR RAW] size=   63744KiB time=01:08:07.41 bitrate= 127.8kbits/s speed= 193x\n[STDOUT RAW] bitrate= 127.8kbits/s\n[STDOUT RAW] total_size=66846720\n[STDOUT RAW] out_time_us=4186009958\n[STDOUT RAW] out_time_ms=4186009958\n[STDOUT RAW] out_time=01:09:46.009958\n[STDOUT RAW] dup_frames=0\n[STDOUT RAW] drop_frames=0\n[STDOUT RAW] speed= 193x\n[STDOUT RAW] progress=continue\n[STDERR RAW] size=   65280KiB time=01:09:46.00 bitrate= 127.8kbits/s speed= 193x\n[STDOUT RAW] bitrate= 127.8kbits/s\n[STDOUT RAW] total_size=68419584\n[STDOUT RAW] out_time_us=4282465958\n[STDOUT RAW] out_time_ms=4282465958\n[STDOUT RAW] out_time=01:11:22.465958\n[STDOUT RAW] dup_frames=0\n[STDOUT RAW] drop_frames=0\n[STDOUT RAW] speed= 193x\n[STDOUT RAW] progress=continue\n[STDERR RAW] size=   66816KiB time=01:11:22.46 bitrate= 127.8kbits/s speed= 193x\n[STDOUT RAW] bitrate= 127.7kbits/s\n[STDOUT RAW] total_size=69730304\n[STDOUT RAW] out_time_us=4366945958\n[STDOUT RAW] out_time_ms=4366945958\n[STDOUT RAW] out_time=01:12:46.945958\n[STDOUT RAW] dup_frames=0\n[STDOUT RAW] drop_frames=0\n[STDOUT RAW] speed= 192x\n[STDOUT RAW] progress=continue\n[STDERR RAW] size=   68096KiB time=01:12:46.94 bitrate= 127.7kbits/s speed= 192x\n[STDOUT RAW] bitrate= 127.5kbits/s\n[STDOUT RAW] total_size=70778880\n[STDOUT RAW] out_time_us=4440193958\n[STDOUT RAW] out_time_ms=4440193958\n[STDOUT RAW] out_time=01:14:00.193958\n[STDOUT RAW] dup_frames=0\n[STDOUT RAW] drop_frames=0\n[STDOUT RAW] speed= 191x\n[STDOUT RAW] progress=continue\n[STDERR RAW] size=   69120KiB time=01:14:00.19 bitrate= 127.5kbits/s speed= 191x\n[STDOUT RAW] bitrate= 127.6kbits/s\n[STDOUT RAW] total_size=72089600\n[STDOUT RAW] out_time_us=4518649958\n[STDOUT RAW] out_time_ms=4518649958\n[STDOUT RAW] out_time=01:15:18.649958\n[STDOUT RAW] dup_frames=0\n[STDOUT RAW] drop_frames=0\n[STDOUT RAW] speed= 190x\n[STDOUT RAW] progress=continue\n[STDERR RAW] size=   70400KiB time=01:15:18.64 bitrate= 127.6kbits/s speed= 190x\n[STDOUT RAW] bitrate= 127.8kbits/s\n[STDOUT RAW] total_size=73400320\n[STDOUT RAW] out_time_us=4593457958\n[STDOUT RAW] out_time_ms=4593457958\n[STDOUT RAW] out_time=01:16:33.457958\n[STDOUT RAW] dup_frames=0\n[STDOUT RAW] drop_frames=0\n[STDOUT RAW] speed= 189x\n[STDOUT RAW] progress=continue\n[STDOUT RAW] bitrate= 127.7kbits/s\n[STDOUT RAW] total_size=74711040\n[STDOUT RAW] out_time_us=4681369958\n[STDOUT RAW] out_time_ms=4681369958\n[STDOUT RAW] out_time=01:18:01.369958\n[STDOUT RAW] dup_frames=0\n[STDOUT RAW] drop_frames=0\n[STDOUT RAW] speed= 189x\n[STDOUT RAW] progress=continue\n[STDERR RAW] size=   71680KiB time=01:16:33.45 bitrate= 127.8kbits/s speed= 189x\n[STDOUT RAW] bitrate= 127.6kbits/s\n[STDERR RAW] size=   72960KiB time=01:18:01.36 bitrate= 127.7kbits/s speed= 189x\n[STDOUT RAW] total_size=76021760\n[STDOUT RAW] out_time_us=4767865958\n[STDOUT RAW] out_time_ms=4767865958\n[STDOUT RAW] out_time=01:19:27.865958\n[STDOUT RAW] dup_frames=0\n[STDOUT RAW] drop_frames=0\n[STDOUT RAW] speed= 189x\n[STDOUT RAW] progress=continue\n[STDERR RAW] size=   74240KiB time=01:19:27.86 bitrate= 127.6kbits/s speed= 189x\n[STDOUT RAW] bitrate= 127.8kbits/s\n[STDOUT RAW] total_size=77856768\n[STDOUT RAW] out_time_us=4872937958\n[STDOUT RAW] out_time_ms=4872937958\n[STDOUT RAW] out_time=01:21:12.937958\n[STDOUT RAW] dup_frames=0\n[STDOUT RAW] drop_frames=0\n[STDOUT RAW] speed= 189x\n[STDOUT RAW] progress=continue\n[STDERR RAW] size=   76032KiB time=01:21:12.93 bitrate= 127.8kbits/s speed= 189x\n[STDOUT RAW] bitrate= 127.9kbits/s\n[STDOUT RAW] total_size=79429632\n[STDOUT RAW] out_time_us=4968937958\n[STDOUT RAW] out_time_ms=4968937958\n[STDOUT RAW] out_time=01:22:48.937958\n[STDOUT RAW] dup_frames=0\n[STDOUT RAW] drop_frames=0\n[STDOUT RAW] speed= 189x\n[STDOUT RAW] progress=continue\n[STDERR RAW] size=   77568KiB time=01:22:48.93 bitrate= 127.9kbits/s speed= 189x\n[STDOUT RAW] bitrate= 127.8kbits/s\n[STDOUT RAW] total_size=80740352\n[STDOUT RAW] out_time_us=5054329958\n[STDOUT RAW] out_time_ms=5054329958\n[STDOUT RAW] out_time=01:24:14.329958\n[STDOUT RAW] dup_frames=0\n[STDOUT RAW] drop_frames=0\n[STDOUT RAW] speed= 188x\n[STDOUT RAW] progress=continue\n[STDERR RAW] size=   78848KiB time=01:24:14.32 bitrate= 127.8kbits/s speed= 188x\n[STDOUT RAW] bitrate= 127.9kbits/s\n[STDOUT RAW] total_size=82313216\n[STDOUT RAW] out_time_us=5148409958\n[STDOUT RAW] out_time_ms=5148409958\n[STDOUT RAW] out_time=01:25:48.409958\n[STDOUT RAW] dup_frames=0\n[STDOUT RAW] drop_frames=0\n[STDOUT RAW] speed= 188x\n[STDOUT RAW] progress=continue\n[STDERR RAW] size=   80384KiB time=01:25:48.40 bitrate= 127.9kbits/s speed= 188x\n[STDOUT RAW] bitrate= 127.8kbits/s\n[STDOUT RAW] total_size=83886080\n[STDOUT RAW] out_time_us=5250457958\n[STDOUT RAW] out_time_ms=5250457958\n[STDOUT RAW] out_time=01:27:30.457958\n[STDOUT RAW] dup_frames=0\n[STDOUT RAW] drop_frames=0\n[STDOUT RAW] speed= 188x\n[STDOUT RAW] progress=continue\n[STDERR RAW] size=   81920KiB time=01:27:30.45 bitrate= 127.8kbits/s speed= 188x\n[STDOUT RAW] bitrate= 127.7kbits/s\n[STDOUT RAW] total_size=85458944\n[STDOUT RAW] out_time_us=5353825958\n[STDOUT RAW] out_time_ms=5353825958\n[STDOUT RAW] out_time=01:29:13.825958\n[STDOUT RAW] dup_frames=0\n[STDOUT RAW] drop_frames=0\n[STDOUT RAW] speed= 189x\n[STDOUT RAW] progress=continue\n[STDERR RAW] size=   83456KiB time=01:29:13.82 bitrate= 127.7kbits/s speed= 189x\n[STDOUT RAW] bitrate= 128.0kbits/s\n[STDOUT RAW] total_size=87293952\n[STDOUT RAW] out_time_us=5457193958\n[STDOUT RAW] out_time_ms=5457193958\n[STDOUT RAW] out_time=01:30:57.193958\n[STDOUT RAW] dup_frames=0\n[STDOUT RAW] drop_frames=0\n[STDOUT RAW] speed= 189x\n[STDOUT RAW] progress=continue\n[STDERR RAW] size=   85248KiB time=01:30:57.19 bitrate= 128.0kbits/s speed= 189x\n[STDOUT RAW] bitrate= 127.8kbits/s\n[STDOUT RAW] total_size=88866816\n[STDOUT RAW] out_time_us=5561353958\n[STDOUT RAW] out_time_ms=5561353958\n[STDOUT RAW] out_time=01:32:41.353958\n[STDOUT RAW] dup_frames=0\n[STDOUT RAW] drop_frames=0\n[STDOUT RAW] speed= 189x\n[STDOUT RAW] progress=continue\n[STDERR RAW] size=   86784KiB time=01:32:41.35 bitrate= 127.8kbits/s speed= 189x\n[STDOUT RAW] bitrate= 127.8kbits/s\n[STDOUT RAW] total_size=90439680\n[STDOUT RAW] out_time_us=5661721958\n[STDOUT RAW] out_time_ms=5661721958\n[STDOUT RAW] out_time=01:34:21.721958\n[STDOUT RAW] dup_frames=0\n[STDOUT RAW] drop_frames=0\n[STDOUT RAW] speed= 189x\n[STDOUT RAW] progress=continue\n[STDERR RAW] size=   88320KiB time=01:34:21.72 bitrate= 127.8kbits/s speed= 189x\n[STDOUT RAW] bitrate= 127.9kbits/s\n[STDOUT RAW] total_size=92274688\n[STDOUT RAW] out_time_us=5771353958\n[STDOUT RAW] out_time_ms=5771353958\n[STDOUT RAW] out_time=01:36:11.353958\n[STDOUT RAW] dup_frames=0\n[STDOUT RAW] drop_frames=0\n[STDOUT RAW] speed= 190x\n[STDOUT RAW] progress=continue\n[STDERR RAW] size=   90112KiB time=01:36:11.35 bitrate= 127.9kbits/s speed= 190x\n[STDOUT RAW] bitrate= 127.7kbits/s\n[STDOUT RAW] total_size=93847552\n[STDOUT RAW] out_time_us=5877001958\n[STDOUT RAW] out_time_ms=5877001958\n[STDOUT RAW] out_time=01:37:57.001958\n[STDOUT RAW] dup_frames=0\n[STDOUT RAW] drop_frames=0\n[STDOUT RAW] speed= 190x\n[STDOUT RAW] progress=continue\n[STDERR RAW] size=   91648KiB time=01:37:57.00 bitrate= 127.7kbits/s speed= 190x\n[STDOUT RAW] bitrate= 127.7kbits/s\n[STDOUT RAW] total_size=95682560\n[STDOUT RAW] out_time_us=5995417958\n[STDOUT RAW] out_time_ms=5995417958\n[STDOUT RAW] out_time=01:39:55.417958\n[STDOUT RAW] dup_frames=0\n[STDOUT RAW] drop_frames=0\n[STDOUT RAW] speed= 191x\n[STDOUT RAW] progress=continue\n[STDERR RAW] size=   93440KiB time=01:39:55.41 bitrate= 127.7kbits/s speed= 191x\n[STDOUT RAW] bitrate= 127.9kbits/s\n[STDOUT RAW] total_size=97517568\n[STDOUT RAW] out_time_us=6099529958\n[STDOUT RAW] out_time_ms=6099529958\n[STDOUT RAW] out_time=01:41:39.529958\n[STDOUT RAW] dup_frames=0\n[STDOUT RAW] drop_frames=0\n[STDOUT RAW] speed= 191x\n[STDOUT RAW] progress=continue\n[STDERR RAW] size=   95232KiB time=01:41:39.52 bitrate= 127.9kbits/s speed= 191x\n[STDOUT RAW] bitrate= 127.8kbits/s\n[STDOUT RAW] total_size=99352576\n[STDOUT RAW] out_time_us=6218377958\n[STDOUT RAW] out_time_ms=6218377958\n[STDOUT RAW] out_time=01:43:38.377958\n[STDOUT RAW] dup_frames=0\n[STDOUT RAW] drop_frames=0\n[STDOUT RAW] speed= 191x\n[STDOUT RAW] progress=continue\n[STDERR RAW] size=   97024KiB time=01:43:38.37 bitrate= 127.8kbits/s speed= 191x\n[STDOUT RAW] bitrate= 127.7kbits/s\n[STDOUT RAW] total_size=100925440\n[STDOUT RAW] out_time_us=6324361958\n[STDOUT RAW] out_time_ms=6324361958\n[STDOUT RAW] out_time=01:45:24.361958\n[STDOUT RAW] dup_frames=0\n[STDOUT RAW] drop_frames=0\n[STDOUT RAW] speed= 192x\n[STDOUT RAW] progress=continue\n[STDERR RAW] size=   98560KiB time=01:45:24.36 bitrate= 127.7kbits/s speed= 192x\n[STDOUT RAW] bitrate= 127.8kbits/s\n[STDOUT RAW] total_size=102760448\n[STDOUT RAW] out_time_us=6431689958\n[STDOUT RAW] out_time_ms=6431689958\n[STDOUT RAW] out_time=01:47:11.689958\n[STDOUT RAW] dup_frames=0\n[STDOUT RAW] drop_frames=0\n[STDOUT RAW] speed= 192x\n[STDOUT RAW] progress=continue\n[STDERR RAW] size=  100352KiB time=01:47:11.68 bitrate= 127.8kbits/s speed= 192x\n[STDOUT RAW] bitrate= 127.8kbits/s\n[STDOUT RAW] total_size=104595456\n[STDOUT RAW] out_time_us=6544897958\n[STDOUT RAW] out_time_ms=6544897958\n[STDOUT RAW] out_time=01:49:04.897958\n[STDOUT RAW] dup_frames=0\n[STDOUT RAW] drop_frames=0\n[STDOUT RAW] speed= 192x\n[STDOUT RAW] progress=continue\n[STDERR RAW] size=  102144KiB time=01:49:04.89 bitrate= 127.8kbits/s speed= 192x\n[STDOUT RAW] bitrate= 127.8kbits/s\n[STDOUT RAW] total_size=106430464\n[STDOUT RAW] out_time_us=6661945958\n[STDOUT RAW] out_time_ms=6661945958\n[STDOUT RAW] out_time=01:51:01.945958\n[STDOUT RAW] dup_frames=0\n[STDOUT RAW] drop_frames=0\n[STDOUT RAW] speed= 193x\n[STDOUT RAW] progress=continue\n[STDERR RAW] size=  103936KiB time=01:51:01.94 bitrate= 127.8kbits/s speed= 193x\n[STDOUT RAW] bitrate= 127.9kbits/s\n[STDOUT RAW] total_size=108265472\n[STDOUT RAW] out_time_us=6773281958\n[STDOUT RAW] out_time_ms=6773281958\n[STDOUT RAW] out_time=01:52:53.281958\n[STDOUT RAW] dup_frames=0\n[STDOUT RAW] drop_frames=0\n[STDOUT RAW] speed= 193x\n[STDOUT RAW] progress=continue\n[STDERR RAW] size=  105728KiB time=01:52:53.28 bitrate= 127.9kbits/s speed= 193x\n[STDOUT RAW] bitrate= 127.9kbits/s\n[STDOUT RAW] total_size=109838336\n[STDOUT RAW] out_time_us=6871129958\n[STDOUT RAW] out_time_ms=6871129958\n[STDOUT RAW] out_time=01:54:31.129958\n[STDOUT RAW] dup_frames=0\n[STDOUT RAW] drop_frames=0\n[STDOUT RAW] speed= 193x\n[STDOUT RAW] progress=continue\n[STDERR RAW] size=  107264KiB time=01:54:31.12 bitrate= 127.9kbits/s speed= 193x\n[STDOUT RAW] bitrate= 127.9kbits/s\n[STDOUT RAW] total_size=111673344\n[STDOUT RAW] out_time_us=6982321958\n[STDOUT RAW] out_time_ms=6982321958\n[STDOUT RAW] out_time=01:56:22.321958\n[STDOUT RAW] dup_frames=0\n[STDOUT RAW] drop_frames=0\n[STDOUT RAW] speed= 193x\n[STDOUT RAW] progress=continue\n[STDOUT RAW] bitrate= 127.7kbits/s\n[STDOUT RAW] total_size=113246208\n[STDERR RAW] size=  109056KiB time=01:56:22.32 bitrate= 127.9kbits/s speed= 193x\n[STDOUT RAW] out_time_us=7094161958\n[STDOUT RAW] out_time_ms=7094161958\n[STDOUT RAW] out_time=01:58:14.161958\n[STDOUT RAW] dup_frames=0\n[STDOUT RAW] drop_frames=0\n[STDOUT RAW] speed= 194x\n[STDOUT RAW] progress=continue\n[STDERR RAW] size=  110592KiB time=01:58:14.16 bitrate= 127.7kbits/s speed= 194x\n[STDOUT RAW] bitrate= 127.8kbits/s\n[STDOUT RAW] total_size=115081216\n[STDOUT RAW] out_time_us=7201777958\n[STDOUT RAW] out_time_ms=7201777958\n[STDOUT RAW] out_time=02:00:01.777958\n[STDOUT RAW] dup_frames=0\n[STDOUT RAW] drop_frames=0\n[STDOUT RAW] speed= 194x\n[STDOUT RAW] progress=continue\n[STDERR RAW] size=  112384KiB time=02:00:01.77 bitrate= 127.8kbits/s speed= 194x\n[STDOUT RAW] bitrate= 127.7kbits/s\n[STDOUT RAW] total_size=116654080\n[STDOUT RAW] out_time_us=7307401958\n[STDOUT RAW] out_time_ms=7307401958\n[STDOUT RAW] out_time=02:01:47.401958\n[STDOUT RAW] dup_frames=0\n[STDOUT RAW] drop_frames=0\n[STDOUT RAW] speed= 194x\n[STDOUT RAW] progress=continue\n[STDERR RAW] size=  113920KiB time=02:01:47.40 bitrate= 127.7kbits/s speed= 194x\n[STDOUT RAW] bitrate= 127.9kbits/s\n[STDOUT RAW] total_size=118489088\n[STDOUT RAW] out_time_us=7409497958\n[STDOUT RAW] out_time_ms=7409497958\n[STDOUT RAW] out_time=02:03:29.497958\n[STDOUT RAW] dup_frames=0\n[STDOUT RAW] drop_frames=0\n[STDOUT RAW] speed= 194x\n[STDOUT RAW] progress=continue\n[STDERR RAW] size=  115712KiB time=02:03:29.49 bitrate= 127.9kbits/s speed= 194x\n[STDOUT RAW] bitrate= 127.8kbits/s\n[STDOUT RAW] total_size=120061952\n[STDOUT RAW] out_time_us=7513321958\n[STDOUT RAW] out_time_ms=7513321958\n[STDOUT RAW] out_time=02:05:13.321958\n[STDOUT RAW] dup_frames=0\n[STDOUT RAW] drop_frames=0\n[STDOUT RAW] speed= 194x\n[STDOUT RAW] progress=continue\n[STDERR RAW] size=  117248KiB time=02:05:13.32 bitrate= 127.8kbits/s speed= 194x\n[STDOUT RAW] bitrate= 127.9kbits/s\n[STDOUT RAW] total_size=121896960\n[STDOUT RAW] out_time_us=7626337958\n[STDOUT RAW] out_time_ms=7626337958\n[STDOUT RAW] out_time=02:07:06.337958\n[STDOUT RAW] dup_frames=0\n[STDOUT RAW] drop_frames=0\n[STDOUT RAW] speed= 195x\n[STDOUT RAW] progress=continue\n[STDERR RAW] size=  119040KiB time=02:07:06.33 bitrate= 127.9kbits/s speed= 195x\n[STDOUT RAW] bitrate= 127.9kbits/s\n[STDOUT RAW] total_size=123469824\n[STDOUT RAW] out_time_us=7724161958\n[STDOUT RAW] out_time_ms=7724161958\n[STDOUT RAW] out_time=02:08:44.161958\n[STDOUT RAW] dup_frames=0\n[STDOUT RAW] drop_frames=0\n[STDOUT RAW] speed= 195x\n[STDOUT RAW] progress=continue\n[STDERR RAW] size=  120576KiB time=02:08:44.16 bitrate= 127.9kbits/s speed= 195x\n[STDOUT RAW] bitrate= 128.0kbits/s\n[STDOUT RAW] total_size=125304832\n[STDOUT RAW] out_time_us=7834009958\n[STDOUT RAW] out_time_ms=7834009958\n[STDOUT RAW] out_time=02:10:34.009958\n[STDOUT RAW] dup_frames=0\n[STDOUT RAW] drop_frames=0\n[STDOUT RAW] speed= 195x\n[STDOUT RAW] progress=continue\n[STDERR RAW] size=  122368KiB time=02:10:34.00 bitrate= 128.0kbits/s speed= 195x\n[STDOUT RAW] bitrate= 127.9kbits/s\n[STDOUT RAW] total_size=126877696\n[STDOUT RAW] out_time_us=7936369958\n[STDOUT RAW] out_time_ms=7936369958\n[STDOUT RAW] out_time=02:12:16.369958\n[STDOUT RAW] dup_frames=0\n[STDOUT RAW] drop_frames=0\n[STDOUT RAW] speed= 195x\n[STDOUT RAW] progress=continue\n[STDERR RAW] size=  123904KiB time=02:12:16.36 bitrate= 127.9kbits/s speed= 195x\n[STDOUT RAW] bitrate= 127.9kbits/s\n[STDOUT RAW] total_size=128712704\n[STDOUT RAW] out_time_us=8048905958\n[STDOUT RAW] out_time_ms=8048905958\n[STDOUT RAW] out_time=02:14:08.905958\n[STDOUT RAW] dup_frames=0\n[STDOUT RAW] drop_frames=0\n[STDOUT RAW] speed= 195x\n[STDOUT RAW] progress=continue\n[STDERR RAW] size=  125696KiB time=02:14:08.90 bitrate= 127.9kbits/s speed= 195x\n[STDOUT RAW] bitrate= 127.9kbits/s\n[STDOUT RAW] total_size=130285568\n[STDOUT RAW] out_time_us=8146993958\n[STDOUT RAW] out_time_ms=8146993958\n[STDOUT RAW] out_time=02:15:46.993958\n[STDOUT RAW] dup_frames=0\n[STDOUT RAW] drop_frames=0\n[STDOUT RAW] speed= 195x\n[STDOUT RAW] progress=continue\n[STDOUT RAW] bitrate= 127.9kbits/s\n[STDOUT RAW] total_size=132120576\n[STDOUT RAW] out_time_us=8263153958\n[STDOUT RAW] out_time_ms=8263153958\n[STDOUT RAW] out_time=02:17:43.153958\n[STDERR RAW] size=  127232KiB time=02:15:46.99 bitrate= 127.9kbits/s speed= 195x\n[STDOUT RAW] dup_frames=0\n[STDOUT RAW] drop_frames=0\n[STDOUT RAW] speed= 195x\n[STDOUT RAW] progress=continue\n[STDERR RAW] size=  129024KiB time=02:17:43.15 bitrate= 127.9kbits/s speed= 195x\n[STDOUT RAW] bitrate= 127.8kbits/s\n[STDOUT RAW] total_size=133693440\n[STDOUT RAW] out_time_us=8365897958\n[STDOUT RAW] out_time_ms=8365897958\n[STDOUT RAW] out_time=02:19:25.897958\n[STDOUT RAW] dup_frames=0\n[STDOUT RAW] drop_frames=0\n[STDOUT RAW] speed= 195x\n[STDOUT RAW] progress=continue\n[STDERR RAW] size=  130560KiB time=02:19:25.89 bitrate= 127.8kbits/s speed= 195x\n[STDOUT RAW] bitrate= 127.8kbits/s\n[STDOUT RAW] total_size=135266304\n[STDOUT RAW] out_time_us=8466673958\n[STDOUT RAW] out_time_ms=8466673958\n[STDOUT RAW] out_time=02:21:06.673958\n[STDOUT RAW] dup_frames=0\n[STDOUT RAW] drop_frames=0\n[STDOUT RAW] speed= 195x\n[STDOUT RAW] progress=continue\n[STDERR RAW] size=  132096KiB time=02:21:06.67 bitrate= 127.8kbits/s speed= 195x\n[STDOUT RAW] bitrate= 127.9kbits/s\n[STDOUT RAW] total_size=137101312\n[STDOUT RAW] out_time_us=8572969958\n[STDOUT RAW] out_time_ms=8572969958\n[STDOUT RAW] out_time=02:22:52.969958\n[STDOUT RAW] dup_frames=0\n[STDOUT RAW] drop_frames=0\n[STDOUT RAW] speed= 196x\n[STDOUT RAW] progress=continue\n[STDERR RAW] size=  133888KiB time=02:22:52.96 bitrate= 127.9kbits/s speed= 196x\n[STDOUT RAW] bitrate= 127.8kbits/s\n[STDOUT RAW] total_size=138674176\n[STDOUT RAW] out_time_us=8677777958\n[STDOUT RAW] out_time_ms=8677777958\n[STDOUT RAW] out_time=02:24:37.777958\n[STDOUT RAW] dup_frames=0\n[STDOUT RAW] drop_frames=0\n[STDOUT RAW] speed= 196x\n[STDOUT RAW] progress=continue\n[STDERR RAW] size=  135424KiB time=02:24:37.77 bitrate= 127.8kbits/s speed= 196x\n[STDOUT RAW] bitrate= 128.0kbits/s\n[STDOUT RAW] total_size=140509184\n[STDOUT RAW] out_time_us=8784745958\n[STDOUT RAW] out_time_ms=8784745958\n[STDOUT RAW] out_time=02:26:24.745958\n[STDOUT RAW] dup_frames=0\n[STDOUT RAW] drop_frames=0\n[STDOUT RAW] speed= 196x\n[STDOUT RAW] progress=continue\n[STDERR RAW] size=  137216KiB time=02:26:24.74 bitrate= 128.0kbits/s speed= 196x\n[STDOUT RAW] bitrate= 128.0kbits/s\n[STDOUT RAW] total_size=142082048\n[STDOUT RAW] out_time_us=8883409958\n[STDOUT RAW] out_time_ms=8883409958\n[STDOUT RAW] out_time=02:28:03.409958\n[STDOUT RAW] dup_frames=0\n[STDOUT RAW] drop_frames=0\n[STDOUT RAW] speed= 196x\n[STDOUT RAW] progress=continue\n[STDERR RAW] size=  138752KiB time=02:28:03.40 bitrate= 128.0kbits/s speed= 196x\n[STDOUT RAW] bitrate= 127.8kbits/s\n[STDOUT RAW] total_size=143654912\n[STDOUT RAW] out_time_us=8994385958\n[STDOUT RAW] out_time_ms=8994385958\n[STDOUT RAW] out_time=02:29:54.385958\n[STDOUT RAW] dup_frames=0\n[STDOUT RAW] drop_frames=0\n[STDOUT RAW] speed= 196x\n[STDOUT RAW] progress=continue\n[STDERR RAW] size=  140288KiB time=02:29:54.38 bitrate= 127.8kbits/s speed= 196x\n[STDOUT RAW] bitrate= 127.8kbits/s\n[STDOUT RAW] total_size=145489920\n[STDOUT RAW] out_time_us=9109201958\n[STDOUT RAW] out_time_ms=9109201958\n[STDOUT RAW] out_time=02:31:49.201958\n[STDOUT RAW] dup_frames=0\n[STDOUT RAW] drop_frames=0\n[STDOUT RAW] speed= 196x\n[STDOUT RAW] progress=continue\n[STDERR RAW] size=  142080KiB time=02:31:49.20 bitrate= 127.8kbits/s speed= 196x\n[STDOUT RAW] bitrate= 128.0kbits/s\n[STDOUT RAW] total_size=147062784\n[STDOUT RAW] out_time_us=9192841958\n[STDOUT RAW] out_time_ms=9192841958\n[STDOUT RAW] out_time=02:33:12.841958\n[STDOUT RAW] dup_frames=0\n[STDOUT RAW] drop_frames=0\n[STDOUT RAW] speed= 196x\n[STDOUT RAW] progress=continue\n[STDERR RAW] size=  143616KiB time=02:33:12.84 bitrate= 128.0kbits/s speed= 196x\n[STDOUT RAW] bitrate= 128.0kbits/s\n[STDOUT RAW] total_size=148635648\n[STDOUT RAW] out_time_us=9291121958\n[STDOUT RAW] out_time_ms=9291121958\n[STDOUT RAW] out_time=02:34:51.121958\n[STDOUT RAW] dup_frames=0\n[STDOUT RAW] drop_frames=0\n[STDOUT RAW] speed= 196x\n[STDOUT RAW] progress=continue\n[STDERR RAW] size=  145152KiB time=02:34:51.12 bitrate= 128.0kbits/s speed= 196x\n[STDOUT RAW] bitrate= 127.8kbits/s\n[STDOUT RAW] total_size=149946368\n[STDOUT RAW] out_time_us=9387169958\n[STDOUT RAW] out_time_ms=9387169958\n[STDOUT RAW] out_time=02:36:27.169958\n[STDOUT RAW] dup_frames=0\n[STDOUT RAW] drop_frames=0\n[STDOUT RAW] speed= 196x\n[STDOUT RAW] progress=continue\n[STDERR RAW] size=  146432KiB time=02:36:27.16 bitrate= 127.8kbits/s speed= 196x\n[STDOUT RAW] bitrate= 128.0kbits/s\n[STDOUT RAW] total_size=151781376\n[STDOUT RAW] out_time_us=9486457958\n[STDOUT RAW] out_time_ms=9486457958\n[STDOUT RAW] out_time=02:38:06.457958\n[STDOUT RAW] dup_frames=0\n[STDOUT RAW] drop_frames=0\n[STDOUT RAW] speed= 196x\n[STDOUT RAW] progress=continue\n[STDERR RAW] size=  148224KiB time=02:38:06.45 bitrate= 128.0kbits/s speed= 196x\n[STDOUT RAW] bitrate= 127.9kbits/s\n[STDOUT RAW] total_size=153092096\n[STDOUT RAW] out_time_us=9577105958\n[STDOUT RAW] out_time_ms=9577105958\n[STDOUT RAW] out_time=02:39:37.105958\n[STDOUT RAW] dup_frames=0\n[STDOUT RAW] drop_frames=0\n[STDOUT RAW] speed= 195x\n[STDOUT RAW] progress=continue\n[STDERR RAW] size=  149504KiB time=02:39:37.10 bitrate= 127.9kbits/s speed= 195x\n[STDOUT RAW] bitrate= 127.8kbits/s\n[STDOUT RAW] total_size=154402816\n[STDOUT RAW] out_time_us=9664825958\n[STDOUT RAW] out_time_ms=9664825958\n[STDOUT RAW] out_time=02:41:04.825958\n[STDOUT RAW] dup_frames=0\n[STDOUT RAW] drop_frames=0\n[STDOUT RAW] speed= 195x\n[STDOUT RAW] progress=continue\n[STDERR RAW] size=  150784KiB time=02:41:04.82 bitrate= 127.8kbits/s speed= 195x\n[STDOUT RAW] bitrate= 127.9kbits/s\n[STDOUT RAW] total_size=155975680\n[STDOUT RAW] out_time_us=9752641958\n[STDOUT RAW] out_time_ms=9752641958\n[STDOUT RAW] out_time=02:42:32.641958\n[STDOUT RAW] dup_frames=0\n[STDOUT RAW] drop_frames=0\n[STDOUT RAW] speed= 195x\n[STDOUT RAW] progress=continue\n[STDERR RAW] size=  152320KiB time=02:42:32.64 bitrate= 127.9kbits/s speed= 195x\n[STDOUT RAW] bitrate= 127.9kbits/s\n[STDOUT RAW] total_size=157548544\n[STDOUT RAW] out_time_us=9852937958\n[STDOUT RAW] out_time_ms=9852937958\n[STDOUT RAW] out_time=02:44:12.937958\n[STDOUT RAW] dup_frames=0\n[STDOUT RAW] drop_frames=0\n[STDOUT RAW] speed= 195x\n[STDOUT RAW] progress=continue\n[STDERR RAW] size=  153856KiB time=02:44:12.93 bitrate= 127.9kbits/s speed= 195x\n[STDOUT RAW] bitrate= 127.8kbits/s\n[STDOUT RAW] total_size=159121408\n[STDOUT RAW] out_time_us=9961609958\n[STDOUT RAW] out_time_ms=9961609958\n[STDOUT RAW] out_time=02:46:01.609958\n[STDOUT RAW] dup_frames=0\n[STDOUT RAW] drop_frames=0\n[STDOUT RAW] speed= 195x\n[STDOUT RAW] progress=continue\n[STDERR RAW] size=  155392KiB time=02:46:01.60 bitrate= 127.8kbits/s speed= 195x\n[STDOUT RAW] bitrate= 127.8kbits/s\n[STDOUT RAW] total_size=160956416\n[STDOUT RAW] out_time_us=10072033958\n[STDOUT RAW] out_time_ms=10072033958\n[STDOUT RAW] out_time=02:47:52.033958\n[STDOUT RAW] dup_frames=0\n[STDOUT RAW] drop_frames=0\n[STDOUT RAW] speed= 195x\n[STDOUT RAW] progress=continue\n[STDERR RAW] size=  157184KiB time=02:47:52.03 bitrate= 127.8kbits/s speed= 195x\n[STDOUT RAW] bitrate= 128.0kbits/s\n[STDOUT RAW] total_size=162791424\n[STDOUT RAW] out_time_us=10175185958\n[STDOUT RAW] out_time_ms=10175185958\n[STDOUT RAW] out_time=02:49:35.185958\n[STDOUT RAW] dup_frames=0\n[STDOUT RAW] drop_frames=0\n[STDOUT RAW] speed= 195x\n[STDOUT RAW] progress=continue\n[STDERR RAW] size=  158976KiB time=02:49:35.18 bitrate= 128.0kbits/s speed= 195x\n[STDOUT RAW] bitrate= 128.0kbits/s\n[STDOUT RAW] total_size=164364288\n[STDOUT RAW] out_time_us=10274449958\n[STDOUT RAW] out_time_ms=10274449958\n[STDOUT RAW] out_time=02:51:14.449958\n[STDOUT RAW] dup_frames=0\n[STDOUT RAW] drop_frames=0\n[STDOUT RAW] speed= 195x\n[STDOUT RAW] progress=continue\n[STDERR RAW] size=  160512KiB time=02:51:14.44 bitrate= 128.0kbits/s speed= 195x\n[STDOUT RAW] bitrate= 127.9kbits/s\n[STDOUT RAW] total_size=165937152\n[STDOUT RAW] out_time_us=10376857958\n[STDOUT RAW] out_time_ms=10376857958\n[STDOUT RAW] out_time=02:52:56.857958\n[STDOUT RAW] dup_frames=0\n[STDOUT RAW] drop_frames=0\n[STDOUT RAW] speed= 195x\n[STDOUT RAW] progress=continue\n[STDERR RAW] size=  162048KiB time=02:52:56.85 bitrate= 127.9kbits/s speed= 195x\n[STDOUT RAW] bitrate= 127.9kbits/s\n[STDOUT RAW] total_size=167510016\n[STDOUT RAW] out_time_us=10479961958\n[STDOUT RAW] out_time_ms=10479961958\n[STDOUT RAW] out_time=02:54:39.961958\n[STDOUT RAW] dup_frames=0\n[STDOUT RAW] drop_frames=0\n[STDOUT RAW] speed= 195x\n[STDOUT RAW] progress=continue\n[STDERR RAW] size=  163584KiB time=02:54:39.96 bitrate= 127.9kbits/s speed= 195x\n[STDOUT RAW] bitrate= 128.0kbits/s\n[STDOUT RAW] total_size=169345024\n[STDOUT RAW] out_time_us=10586545958\n[STDOUT RAW] out_time_ms=10586545958\n[STDOUT RAW] out_time=02:56:26.545958\n[STDOUT RAW] dup_frames=0\n[STDOUT RAW] drop_frames=0\n[STDOUT RAW] speed= 196x\n[STDOUT RAW] progress=continue\n[STDERR RAW] size=  165376KiB time=02:56:26.54 bitrate= 128.0kbits/s speed= 196x\n[STDOUT RAW] bitrate= 127.8kbits/s\n[STDOUT RAW] total_size=170917888\n[STDOUT RAW] out_time_us=10695145958\n[STDOUT RAW] out_time_ms=10695145958\n[STDOUT RAW] out_time=02:58:15.145958\n[STDOUT RAW] dup_frames=0\n[STDOUT RAW] drop_frames=0\n[STDOUT RAW] speed= 196x\n[STDOUT RAW] progress=continue\n[STDOUT RAW] bitrate= 127.8kbits/s\n[STDOUT RAW] total_size=172490752\n[STDOUT RAW] out_time_us=10797193958\n[STDOUT RAW] out_time_ms=10797193958\n[STDERR RAW] size=  166912KiB time=02:58:15.14 bitrate= 127.8kbits/s speed= 196x\n[STDOUT RAW] out_time=02:59:57.193958\n[STDOUT RAW] dup_frames=0\n[STDOUT RAW] drop_frames=0\n[STDOUT RAW] speed= 196x\n[STDOUT RAW] progress=continue\n[STDERR RAW] size=  168448KiB time=02:59:57.19 bitrate= 127.8kbits/s speed= 196x\n[STDOUT RAW] bitrate= 127.9kbits/s\n[STDOUT RAW] total_size=174325760\n[STDOUT RAW] out_time_us=10906993958\n[STDOUT RAW] out_time_ms=10906993958\n[STDOUT RAW] out_time=03:01:46.993958\n[STDOUT RAW] dup_frames=0\n[STDOUT RAW] drop_frames=0\n[STDOUT RAW] speed= 196x\n[STDOUT RAW] progress=continue\n[STDERR RAW] size=  170240KiB time=03:01:46.99 bitrate= 127.9kbits/s speed= 196x\n[STDOUT RAW] bitrate= 127.8kbits/s\n[STDOUT RAW] total_size=175898624\n[STDOUT RAW] out_time_us=11007721958\n[STDOUT RAW] out_time_ms=11007721958\n[STDOUT RAW] out_time=03:03:27.721958\n[STDOUT RAW] dup_frames=0\n[STDOUT RAW] drop_frames=0\n[STDOUT RAW] speed= 196x\n[STDOUT RAW] progress=continue\n[STDERR RAW] size=  171776KiB time=03:03:27.72 bitrate= 127.8kbits/s speed= 196x\n[STDOUT RAW] bitrate= 127.9kbits/s\n[STDOUT RAW] total_size=177471488\n[STDOUT RAW] out_time_us=11100841958\n[STDOUT RAW] out_time_ms=11100841958\n[STDOUT RAW] out_time=03:05:00.841958\n[STDOUT RAW] dup_frames=0\n[STDOUT RAW] drop_frames=0\n[STDOUT RAW] speed= 196x\n[STDOUT RAW] progress=continue\n[STDERR RAW] size=  173312KiB time=03:05:00.84 bitrate= 127.9kbits/s speed= 196x\n[STDOUT RAW] bitrate= 127.9kbits/s\n[STDOUT RAW] total_size=179044352\n[STDOUT RAW] out_time_us=11197225958\n[STDOUT RAW] out_time_ms=11197225958\n[STDOUT RAW] out_time=03:06:37.225958\n[STDOUT RAW] dup_frames=0\n[STDOUT RAW] drop_frames=0\n[STDOUT RAW] speed= 196x\n[STDOUT RAW] progress=continue\n[STDERR RAW] size=  174848KiB time=03:06:37.22 bitrate= 127.9kbits/s speed= 196x\n[STDOUT RAW] bitrate= 127.8kbits/s\n[STDOUT RAW] total_size=180617216\n[STDOUT RAW] out_time_us=11305081958\n[STDOUT RAW] out_time_ms=11305081958\n[STDOUT RAW] out_time=03:08:25.081958\n[STDOUT RAW] dup_frames=0\n[STDOUT RAW] drop_frames=0\n[STDOUT RAW] speed= 196x\n[STDOUT RAW] progress=continue\n[STDERR RAW] size=  176384KiB time=03:08:25.08 bitrate= 127.8kbits/s speed= 196x\n[STDOUT RAW] bitrate= 127.9kbits/s\n[STDOUT RAW] total_size=182452224\n[STDOUT RAW] out_time_us=11414785958\n[STDOUT RAW] out_time_ms=11414785958\n[STDOUT RAW] out_time=03:10:14.785958\n[STDOUT RAW] dup_frames=0\n[STDOUT RAW] drop_frames=0\n[STDOUT RAW] speed= 196x\n[STDOUT RAW] progress=continue\n[STDERR RAW] size=  178176KiB time=03:10:14.78 bitrate= 127.9kbits/s speed= 196x\n[STDOUT RAW] bitrate= 127.9kbits/s\n[STDOUT RAW] total_size=184287232\n[STDOUT RAW] out_time_us=11525473958\n[STDOUT RAW] out_time_ms=11525473958\n[STDOUT RAW] out_time=03:12:05.473958\n[STDOUT RAW] dup_frames=0\n[STDOUT RAW] drop_frames=0\n[STDOUT RAW] speed= 196x\n[STDOUT RAW] progress=continue\n[STDERR RAW] size=  179968KiB time=03:12:05.47 bitrate= 127.9kbits/s speed= 196x\n[STDOUT RAW] bitrate= 127.9kbits/s\n[STDOUT RAW] total_size=186122240\n[STDOUT RAW] out_time_us=11645041958\n[STDOUT RAW] out_time_ms=11645041958\n[STDOUT RAW] out_time=03:14:05.041958\n[STDOUT RAW] dup_frames=0\n[STDOUT RAW] drop_frames=0\n[STDOUT RAW] speed= 196x\n[STDOUT RAW] progress=continue\n[STDERR RAW] size=  181760KiB time=03:14:05.04 bitrate= 127.9kbits/s speed= 196x\n[STDOUT RAW] bitrate= 127.8kbits/s\n[STDOUT RAW] total_size=187695104\n[STDOUT RAW] out_time_us=11746465958\n[STDOUT RAW] out_time_ms=11746465958\n[STDOUT RAW] out_time=03:15:46.465958\n[STDOUT RAW] dup_frames=0\n[STDOUT RAW] drop_frames=0\n[STDOUT RAW] speed= 196x\n[STDOUT RAW] progress=continue\n[STDERR RAW] size=  183296KiB time=03:15:46.46 bitrate= 127.8kbits/s speed= 196x\n[STDOUT RAW] bitrate= 127.8kbits/s\n[STDOUT RAW] total_size=189530112\n[STDOUT RAW] out_time_us=11862145958\n[STDOUT RAW] out_time_ms=11862145958\n[STDOUT RAW] out_time=03:17:42.145958\n[STDOUT RAW] dup_frames=0\n[STDOUT RAW] drop_frames=0\n[STDOUT RAW] speed= 197x\n[STDOUT RAW] progress=continue\n[STDERR RAW] size=  185088KiB time=03:17:42.14 bitrate= 127.8kbits/s speed= 197x\n[STDOUT RAW] bitrate= 128.0kbits/s\n[STDOUT RAW] total_size=191627264\n[STDOUT RAW] out_time_us=11979505958\n[STDOUT RAW] out_time_ms=11979505958\n[STDOUT RAW] out_time=03:19:39.505958\n[STDOUT RAW] dup_frames=0\n[STDOUT RAW] drop_frames=0\n[STDOUT RAW] speed= 197x\n[STDOUT RAW] progress=continue\n[STDERR RAW] size=  187136KiB time=03:19:39.50 bitrate= 128.0kbits/s speed= 197x\n[STDOUT RAW] bitrate= 127.9kbits/s\n[STDOUT RAW] total_size=193200128\n[STDOUT RAW] out_time_us=12085009958\n[STDOUT RAW] out_time_ms=12085009958\n[STDOUT RAW] out_time=03:21:25.009958\n[STDOUT RAW] dup_frames=0\n[STDOUT RAW] drop_frames=0\n[STDOUT RAW] speed= 197x\n[STDOUT RAW] progress=continue\n[STDERR RAW] size=  188672KiB time=03:21:25.00 bitrate= 127.9kbits/s speed= 197x\n[STDOUT RAW] bitrate= 127.8kbits/s\n[STDOUT RAW] total_size=194772992\n[STDOUT RAW] out_time_us=12189817958\n[STDOUT RAW] out_time_ms=12189817958\n[STDOUT RAW] out_time=03:23:09.817958\n[STDOUT RAW] dup_frames=0\n[STDOUT RAW] drop_frames=0\n[STDOUT RAW] speed= 197x\n[STDOUT RAW] progress=continue\n[STDERR RAW] size=  190208KiB time=03:23:09.81 bitrate= 127.8kbits/s speed= 197x\n[STDOUT RAW] bitrate= 128.0kbits/s\n[STDOUT RAW] total_size=196870144\n[STDOUT RAW] out_time_us=12307105958\n[STDOUT RAW] out_time_ms=12307105958\n[STDOUT RAW] out_time=03:25:07.105958\n[STDOUT RAW] dup_frames=0\n[STDOUT RAW] drop_frames=0\n[STDOUT RAW] speed= 197x\n[STDOUT RAW] progress=continue\n[STDERR RAW] size=  192256KiB time=03:25:07.10 bitrate= 128.0kbits/s speed= 197x\n[STDOUT RAW] bitrate= 127.8kbits/s\n[STDOUT RAW] total_size=198443008\n[STDOUT RAW] out_time_us=12419209958\n[STDOUT RAW] out_time_ms=12419209958\n[STDOUT RAW] out_time=03:26:59.209958\n[STDOUT RAW] dup_frames=0\n[STDOUT RAW] drop_frames=0\n[STDOUT RAW] speed= 197x\n[STDOUT RAW] progress=continue\n[STDERR RAW] size=  193792KiB time=03:26:59.20 bitrate= 127.8kbits/s speed= 197x\n[STDOUT RAW] bitrate= 127.8kbits/s\n[STDOUT RAW] total_size=200278016\n[STDOUT RAW] out_time_us=12533881958\n[STDOUT RAW] out_time_ms=12533881958\n[STDOUT RAW] out_time=03:28:53.881958\n[STDOUT RAW] dup_frames=0\n[STDOUT RAW] drop_frames=0\n[STDOUT RAW] speed= 198x\n[STDOUT RAW] progress=continue\n[STDERR RAW] size=  195584KiB time=03:28:53.88 bitrate= 127.8kbits/s speed= 198x\n[STDOUT RAW] bitrate= 127.9kbits/s\n[STDOUT RAW] total_size=202113024\n[STDOUT RAW] out_time_us=12641545958\n[STDOUT RAW] out_time_ms=12641545958\n[STDOUT RAW] out_time=03:30:41.545958\n[STDOUT RAW] dup_frames=0\n[STDOUT RAW] drop_frames=0\n[STDOUT RAW] speed= 198x\n[STDOUT RAW] progress=continue\n[STDERR RAW] size=  197376KiB time=03:30:41.54 bitrate= 127.9kbits/s speed= 198x\n[STDOUT RAW] bitrate= 127.8kbits/s\n[STDOUT RAW] total_size=203685888\n[STDOUT RAW] out_time_us=12746881958\n[STDOUT RAW] out_time_ms=12746881958\n[STDOUT RAW] out_time=03:32:26.881958\n[STDOUT RAW] dup_frames=0\n[STDOUT RAW] drop_frames=0\n[STDOUT RAW] speed= 198x\n[STDOUT RAW] progress=continue\n[STDERR RAW] size=  198912KiB time=03:32:26.88 bitrate= 127.8kbits/s speed= 198x\n[STDOUT RAW] bitrate= 127.9kbits/s\n[STDOUT RAW] total_size=205520896\n[STDOUT RAW] out_time_us=12858193958\n[STDOUT RAW] out_time_ms=12858193958\n[STDOUT RAW] out_time=03:34:18.193958\n[STDOUT RAW] dup_frames=0\n[STDOUT RAW] drop_frames=0\n[STDOUT RAW] speed= 198x\n[STDOUT RAW] progress=continue\n[STDERR RAW] size=  200704KiB time=03:34:18.19 bitrate= 127.9kbits/s speed= 198x\n[STDOUT RAW] bitrate= 127.8kbits/s\n[STDOUT RAW] total_size=206045184\n[STDOUT RAW] out_time_us=12894337958\n[STDOUT RAW] out_time_ms=12894337958\n[STDOUT RAW] out_time=03:34:54.337958\n[STDOUT RAW] dup_frames=0\n[STDOUT RAW] drop_frames=0\n[STDOUT RAW] speed= 197x\n[STDOUT RAW] progress=continue\n[STDERR RAW] size=  201216KiB time=03:34:54.33 bitrate= 127.8kbits/s speed= 197x\n[STDOUT RAW] bitrate= 127.8kbits/s\n[STDOUT RAW] total_size=207880192\n[STDOUT RAW] out_time_us=13008409958\n[STDOUT RAW] out_time_ms=13008409958\n[STDOUT RAW] out_time=03:36:48.409958\n[STDOUT RAW] dup_frames=0\n[STDOUT RAW] drop_frames=0\n[STDOUT RAW] speed= 197x\n[STDOUT RAW] progress=continue\n[STDERR RAW] size=  203008KiB time=03:36:48.40 bitrate= 127.8kbits/s speed= 197x\n[STDOUT RAW] bitrate= 127.9kbits/s\n[STDOUT RAW] total_size=209715200\n[STDOUT RAW] out_time_us=13121713958\n[STDOUT RAW] out_time_ms=13121713958\n[STDOUT RAW] out_time=03:38:41.713958\n[STDOUT RAW] dup_frames=0\n[STDOUT RAW] drop_frames=0\n[STDOUT RAW] speed= 197x\n[STDOUT RAW] progress=continue\n[STDERR RAW] size=  204800KiB time=03:38:41.71 bitrate= 127.9kbits/s speed= 197x\n[STDOUT RAW] bitrate= 127.9kbits/s\n[STDOUT RAW] total_size=211550208\n[STDOUT RAW] out_time_us=13227745958\n[STDOUT RAW] out_time_ms=13227745958\n[STDOUT RAW] out_time=03:40:27.745958\n[STDOUT RAW] dup_frames=0\n[STDOUT RAW] drop_frames=0\n[STDOUT RAW] speed= 197x\n[STDOUT RAW] progress=continue\n[STDERR RAW] size=  206592KiB time=03:40:27.74 bitrate= 127.9kbits/s speed= 197x\n[STDOUT RAW] bitrate= 127.8kbits/s\n[STDOUT RAW] total_size=213123072\n[STDOUT RAW] out_time_us=13336705958\n[STDOUT RAW] out_time_ms=13336705958\n[STDOUT RAW] out_time=03:42:16.705958\n[STDOUT RAW] dup_frames=0\n[STDOUT RAW] drop_frames=0\n[STDOUT RAW] speed= 197x\n[STDOUT RAW] progress=continue\n[STDERR RAW] size=  208128KiB time=03:42:16.70 bitrate= 127.8kbits/s speed= 197x\n[STDOUT RAW] bitrate= 127.8kbits/s\n[STDOUT RAW] total_size=214958080\n[STDOUT RAW] out_time_us=13451401958\n[STDOUT RAW] out_time_ms=13451401958\n[STDOUT RAW] out_time=03:44:11.401958\n[STDOUT RAW] dup_frames=0\n[STDOUT RAW] drop_frames=0\n[STDOUT RAW] speed= 198x\n[STDOUT RAW] progress=continue\n[STDERR RAW] size=  209920KiB time=03:44:11.40 bitrate= 127.8kbits/s speed= 198x\n[STDOUT RAW] bitrate= 127.8kbits/s\n[STDOUT RAW] total_size=216530944\n[STDOUT RAW] out_time_us=13549705958\n[STDOUT RAW] out_time_ms=13549705958\n[STDOUT RAW] out_time=03:45:49.705958\n[STDOUT RAW] dup_frames=0\n[STDOUT RAW] drop_frames=0\n[STDOUT RAW] speed= 198x\n[STDOUT RAW] progress=continue\n[STDERR RAW] size=  211456KiB time=03:45:49.70 bitrate= 127.8kbits/s speed= 198x\n[STDOUT RAW] bitrate= 127.9kbits/s\n[STDOUT RAW] total_size=218365952\n[STDOUT RAW] out_time_us=13660297958\n[STDOUT RAW] out_time_ms=13660297958\n[STDOUT RAW] out_time=03:47:40.297958\n[STDOUT RAW] dup_frames=0\n[STDOUT RAW] drop_frames=0\n[STDOUT RAW] speed= 198x\n[STDOUT RAW] progress=continue\n[STDERR RAW] size=  213248KiB time=03:47:40.29 bitrate= 127.9kbits/s speed= 198x\n[STDOUT RAW] bitrate= 127.9kbits/s\n[STDOUT RAW] total_size=220200960\n[STDOUT RAW] out_time_us=13777465958\n[STDOUT RAW] out_time_ms=13777465958\n[STDOUT RAW] out_time=03:49:37.465958\n[STDOUT RAW] dup_frames=0\n[STDOUT RAW] drop_frames=0\n[STDOUT RAW] speed= 198x\n[STDOUT RAW] progress=continue\n[STDERR RAW] size=  215040KiB time=03:49:37.46 bitrate= 127.9kbits/s speed= 198x\n[STDOUT RAW] bitrate= 128.0kbits/s\n[STDOUT RAW] total_size=222035968\n[STDOUT RAW] out_time_us=13880881958\n[STDOUT RAW] out_time_ms=13880881958\n[STDOUT RAW] out_time=03:51:20.881958\n[STDOUT RAW] dup_frames=0\n[STDOUT RAW] drop_frames=0\n[STDOUT RAW] speed= 198x\n[STDOUT RAW] progress=continue\n[STDERR RAW] size=  216832KiB time=03:51:20.88 bitrate= 128.0kbits/s speed= 198x\n[STDOUT RAW] bitrate= 128.0kbits/s\n[STDERR RAW] size=  218410KiB time=03:52:58.13 bitrate= 128.0kbits/s speed= 198x\n[STDOUT RAW] total_size=223651628\n[STDOUT RAW] out_time_us=13978130667\n[STDOUT RAW] out_time_ms=13978130667\n[STDOUT RAW] out_time=03:52:58.130667\n[STDOUT RAW] dup_frames=0\n[STDOUT RAW] drop_frames=0\n[STDOUT RAW] speed= 198x\n[STDOUT RAW] progress=end\n[ConversionWorker] STDERR pipe closed signal received.\n[ConversionWorker] Detected 'progress=end' for 高冷18.wav\n[ConversionWorker] STDOUT pipe closed signal received.\n[ConversionWorker] Process finished and both stream pipes closed. Exiting loop.\n[ConversionWorker] Waiting for reader threads to join...\n[ConversionWorker] FFmpeg process ended. Return code: 0\n[ConversionWorker] Closing FFmpeg log file.\n